<?xml version="1.0" encoding="UTF-8"?>
<!DOCTYPE svg PUBLIC "-//W3C//DTD SVG 1.1//EN" "http://www.w3.org/Graphics/SVG/1.1/DTD/svg11.dtd">
<!-- Creator: CorelDRAW 2019 (64-Bit) -->
<svg xmlns="http://www.w3.org/2000/svg" xml:space="preserve" width="192.88mm" height="208.001mm" version="1.1" style="shape-rendering:geometricPrecision; text-rendering:geometricPrecision; image-rendering:optimizeQuality; fill-rule:evenodd; clip-rule:evenodd"
viewBox="0 0 195.2225 210.5273"
 xmlns:xlink="http://www.w3.org/1999/xlink"
 xmlns:xodm="http://www.corel.com/coreldraw/odm/2003">
 <defs>
  <style type="text/css">
   <![CDATA[
    .fil3 {fill:#FEFEFE}
    .fil0 {fill:black}
    .fil1 {fill:#F2DA00}
    .fil2 {fill:#C60D0F}
    .fil4 {fill:#009A43}
   ]]>
  </style>
 </defs>
 <g id="Layer_x0020_1">
  <metadata id="CorelCorpID_0Corel-Layer"/>
  <g id="_660705360">
   <g>
    <path class="fil0" d="M37.8721 27.9451c19.7538,-8.5762 38.9907,-12.8246 58.6,-12.9173 19.5946,-0.0921 39.5495,3.968 60.7541,12.0085l0.6215 0.2357 0.0014 0.6608 0.0936 39.5217 0 0.0151 -0.0016 0.0918 0 0.0037c-0.0773,3.9592 -0.6182,8.3292 -1.5871,12.9659 -0.9665,4.6225 -2.3568,9.4976 -4.1366,14.4804 -9.1539,25.6237 -28.7059,54.4501 -54.1789,67.2871l-0.4266 0.215 -0.4286 -0.2112c-0.1545,-0.0759 0.1847,0.0944 -0.0622,-0.0288l0.0009 -0.0016c-5.083,-2.5156 -9.8875,-5.6218 -14.3927,-9.1807 -4.4984,-3.5536 -8.7158,-7.5728 -12.6274,-11.917 -20.0459,-22.2615 -31.9203,-53.0212 -32.6507,-73.604l0 -0.03 -0.1603 -38.7096 -0.0024 -0.6318 0.5839 -0.2537zm118.1482 39.5864l0 0 0.0017 -0.0902 -0.0921 -38.8457c-20.7476,-7.7993 -40.2805,-11.7372 -59.4504,-11.6472 -19.1526,0.0905 -37.957,4.2058 -57.2655,12.5088l0.1577 38.0454c0.7175,20.2159 12.4109,50.4617 32.1552,72.3884 3.8287,4.2523 7.9678,8.1945 12.3948,11.692 4.3084,3.4036 8.8757,6.3742 13.6783,8.7859 24.7885,-12.7028 43.8412,-40.9 52.8091,-66.0027 1.7572,-4.9189 3.1249,-9.7078 4.0692,-14.2254 0.9409,-4.5025 1.4662,-8.7522 1.5419,-12.6094l0 -0.0039c0,0.0015 0,0.0024 0,0.0039zm0 -0.0039l0 0 0.0017 -0.0862 -0.0017 0.0862z"/>
   </g>
   <path class="fil0" d="M0.8317 168.4803l0 5.6507 5.4353 0 0 30.7759 -6.267 0 0 5.6203 21.2322 0 0 -5.6498 -6.0809 0 0 -12.8519 3.5943 0 -0.0618 2.469 4.5035 0 0 -10.9399 -4.761 0 0 2.7996 -3.2131 0.0474 0 -12.3948 161.2893 0 0 -5.5339 -175.6709 0.0074zm34.5543 10.5363l0 0 13.1796 0c2.7934,0.5812 4.9894,1.8763 6.4952,5.0526l0 13.0196 -17.2523 0 0 7.7737c0.2883,0.8428 0.7394,1.5561 2.3249,1.3601l4.0714 0c1.0641,0.0032 1.741,-0.6409 2.0304,-1.9329l0 -3.8976 9.0171 0 0 4.3731c-0.8714,3.3357 -3.4222,5.2468 -7.6524,5.7329l-11.5354 0c-4.6188,-0.6806 -7.0419,-3.0445 -7.2684,-7.0932l0 -19.6272c1.1633,-2.7536 3.3598,-4.3403 6.59,-4.7611zm4.1671 4.0808l0 0 5.242 0.0232c0.9052,0.4547 1.3229,1.1269 1.2529,2.0168l0 8.5513 -8.1426 0 0 -8.798c-0.0823,-0.8508 0.758,-1.7192 1.6477,-1.7933zm19.4341 -4.0976l0 0 11.8412 -0.0201 0 4.6697 3.8963 -2.6016c4.3113,-3.5213 9.4497,-2.8386 11.2108,2.3715l0 12.3978 -9.1627 0 0 -11.2121c-0.5396,-0.5036 -2.5163,1.1496 -5.9302,4.9581l0 15.41 3.1311 0 0 5.287 -14.663 0 0 -5.3905 2.9122 0 0 -20.907 -3.2356 0 0 -4.9627zm30.7499 0l0 0 11.8411 -0.0201 0 4.6697 3.8963 -2.6016c4.3114,-3.5213 9.4497,-2.8386 11.2108,2.3715l0 12.3978 -9.1627 0 0 -11.2121c-0.5395,-0.5036 -2.5163,1.1496 -5.9302,4.9581l0 15.41 3.1311 0 0 5.287 -14.663 0 0 -5.3905 2.9123 0 0 -20.907 -3.2356 0 0 -4.9627zm60.0863 0l0 0 11.8412 -0.0201 0 4.6697 3.8963 -2.6016c4.3114,-3.5213 9.4497,-2.8386 11.2109,2.3715l0 12.3978 -9.1628 0 0 -11.2121c-0.5395,-0.5036 -2.5161,1.1496 -5.9302,4.9581l0 15.41 3.1313 0 0 5.287 -14.6632 0 0 -5.3905 2.9122 0 0 -20.907 -3.2356 0 0 -4.9627zm29.8279 -0.2582l0 0 0 4.6963 2.9276 0.0326 0 21.0526 -2.9276 0 0 5.3724 15.3921 0 0 -5.1906 -3.134 0.0232 0 -21.2902 2.9468 0 0 -4.6994 -15.2048 0.0031zm7.6941 -10.625l0 0c-4.3387,0 -7.8772,1.3166 -7.8772,2.9312 0,1.6143 3.5386,2.931 7.8772,2.931 4.3386,0 7.8771,-1.3167 7.8771,-2.931 0,-1.6146 -3.5386,-2.9312 -7.8771,-2.9312zm-67.9638 20.5173l0 0c-0.2444,-8.2434 4.824,-9.5258 8.0605,-9.8923l8.6099 0c4.7017,0.3058 7.4495,2.5646 8.2435,6.7772l0 19.2243 2.1984 0 0 5.6905 -20.151 0c-4.106,0.0095 -6.6289,-3.4974 -6.778,-6.0373l0 -7.2843c0.0356,-2.768 3.1783,-5.4036 7.1424,-5.1806l8.4287 0 0 -6.778c0.3316,-1.436 -0.1569,-2.1688 -1.4656,-2.1982l-3.6637 0c-1.1344,-0.0912 -1.6809,0.5185 -1.6415,1.8319l0 3.8469 -8.9837 0zm15.9382 6.3464l0 0 0 11.1659 -4.6631 0c-1.4634,0.1157 -2.224,-0.2648 -2.2828,-1.3186l0 -8.4404c0.0004,-0.7037 0.4695,-1.1731 1.4069,-1.4069l5.539 0z"/>
   <path class="fil1" d="M38.2535 28.8293c39.2631,-17.0504 76.4538,-16.8963 118.6379,-0.898l0.0942 39.5245c-0.4995,27.8839 -24.2793,76.2977 -59.3775,93.9891 -35.8173,-17.6914 -58.1863,-65.5551 -59.1951,-93.9105l-0.1595 -38.705z"/>
   <path class="fil0" d="M93.3684 89.3055l-1.0016 -0.2003 -0.2003 0.5009c0,0 -0.2003,0.4007 0,1.0016 0.2003,0.601 0.1001,1.5025 0.3005,2.0033 0.2003,0.501 0.4006,0.9015 0.601,1.7029 0.2004,0.8014 0.7011,3.2054 0.7011,3.2054 0,0 0.2003,0.8014 0.7013,1.7029 0.5008,0.9016 1.0015,1.3023 1.3021,2.0034 0.3005,0.7012 1.0016,2.2036 1.0016,2.2036l1.0016 1.2021c0,0 0.3006,-0.1002 0.5008,0.7012 0.2005,0.8013 0.3005,0.6009 0.3005,1.1018 0,0.5009 -0.701,0.9014 -0.701,0.9014 0,0 -1.0018,-0.2003 -1.803,-0.2003 -0.8013,0 -1.0016,-0.1002 -1.9031,-0.2002 -0.9015,-0.1003 -2.1037,-0.3005 -2.1037,-0.3005 0,0 -0.4005,-0.4008 -1.302,-0.6011 -0.9015,-0.2003 -1.9033,-0.4007 -1.9033,-0.4007 0,0 -0.9014,-0.5008 -1.5024,-0.5008 -0.601,0 -1.0018,-0.1001 -1.0018,-0.1001l-1.202 0.1001 -0.9014 -0.4006 -1.8031 0 -1.9031 0 -1.3023 -0.1002 -1.6026 0 -0.7013 0.4007 0.4008 1.7028 0.7012 0.8014 1.5024 0.8013c0,0 1.1018,0.601 1.6028,0.601 0.5008,0 1.3021,0.1001 1.9032,0.1001 0.601,0 1.5025,-0.2003 1.5025,-0.2003 0,0 1.1018,-0.601 1.4023,-0.1001 0.3005,0.5008 1.1019,0.8013 1.1019,0.8013 0,0 0.5008,0 1.1018,0 0.601,0 0.8013,0 1.5025,0 0.7011,0 0.2004,-0.601 1.4024,-0.1002 1.2019,0.5008 2.4039,0.4007 2.4039,0.4007l2.8048 0.9014c0,0 0.7012,0.4007 1.2019,0.6011 0.5008,0.2004 1.0018,0.3005 1.6027,0.5009 0.601,0.2003 1.6028,0.4006 2.1035,0.4006 0.5008,0 1.3022,-0.5008 1.3022,-0.5008 0,0 0.5009,-0.2003 0.5009,-0.8013 0,-0.601 -0.1002,-1.0018 -0.1002,-1.0018l-1.2021 -2.1034 -0.701 -2.4041 -0.7013 -2.6045 0.1003 -2.3037 0.4005 -2.5044 -0.5008 -0.7011 -1.5024 -1.4024 -0.2005 -0.8013 -0.3005 -1.0017 -0.5008 -1.0016 -0.7012 -1.102 -0.8012 -0.7011 -1.1019 -0.9016 -1.0015 -0.601 -0.8015 -0.5008z"/>
   <path class="fil0" d="M96.587 22.6035l-0.5161 0.43 -0.0859 0.4302c-0.1721,0.6881 -0.0861,1.2041 -0.0861,1.2041l0.1721 0.5161 -0.258 0.6883 -1.0321 0.0859 -0.8603 0 -1.1182 -0.258 -0.774 -0.5162 -0.6882 -0.0859 -0.8602 0 -1.0322 0 -0.6021 0.2581 0.6021 0.344 0.6882 0.258 -0.43 0.2581 -0.6882 -0.0861 -1.0323 -0.172 -0.6882 0.4302 -0.2579 0.43 0.774 0.0861c0,0 -0.172,-0.2582 0.4302,-0.1721 0.602,0.0859 0.9463,0.1721 0.9463,0.1721l0.6019 0.0859 0.5161 0.2581 1.0323 0.4301 0.602 0.3441 -7.3973 3.9567 -1.8804 0.3484 -1.1302 1.0277 -1.4622 1.5484 0 2.7524 0.344 0.4302 0.7742 -0.0861 2.9246 -0.8601 0.43 0.172 0.0861 0.4302 -0.8602 0.258 -2.3224 0.7741c0.5161,0.3441 1.1181,0.6022 1.1181,0.6022 0,0 0.172,0.0859 0.6021,0.0859 0.4302,0 0.0859,0 0.8601,-0.1721 0.7742,-0.172 1.1182,-0.2579 1.1182,-0.2579l0.8601 -0.344 0.6022 0.0858 0.688 -0.172 0.4302 0.344 0.7741 0.0861 1.1182 0.2579 1.1182 0.1721 1.0321 0.1721 1.0322 0.0861 0.6021 0 0.5161 0.9462 -0.2579 0.8601 -0.4302 1.1182 -0.6882 1.5482 -0.6021 1.2041 -1.0322 1.7204 -0.7741 1.2902 -1.1181 1.4623 -1.0323 1.118 -1.3761 0.9462 -0.7743 0.8602 -0.43 1.2043 -0.7741 0.8602 -1.5483 0.9462 -1.3764 0.9461 -1.3761 0.9462 -1.2044 0.8601 -1.118 0.6021 -0.5161 -0.3439 -1.2044 -0.5161 -1.2902 -0.6882 -1.3762 -0.5162 -0.7742 -0.6881 -0.8601 -1.0322 -1.0321 -0.6881 -1.1182 -0.6882 -0.6882 -0.2581 -1.3763 -0.0859 -1.0322 0.258 -0.9462 0.7742 -0.602 0.86 -0.344 0.9463 -0.7742 1.2041 -0.6882 2.2365 -0.172 1.0321c0,0 -0.8603,1.7202 -0.9462,2.1503 -0.0861,0.4303 -0.4303,1.8064 -0.4303,1.8064l-0.774 1.8924 -0.086 0.9461 -0.7742 1.3764c0,0 -0.43,0.43 -0.43,0.86 0,0.4302 0.2579,1.6344 0.2579,1.6344 0,0 -0.0859,0.9462 -0.0859,1.3761 0,0.4302 -0.172,0.6883 -0.172,1.1182 0,0.4302 -0.1721,1.2041 -0.0861,1.6343 0.0861,0.4302 0.2581,1.4623 0.2581,1.4623l1.1182 0.3439 0.6882 -0.86 0.8601 -0.6882 0.86 -0.9462 -0.344 -1.4623 -0.344 -1.1182 -0.344 -1.3761 -0.172 -1.8925 0.516 -2.2362 0.5161 -1.2044 0.8601 -0.602 0.8602 -0.6021 1.2043 -0.9463 0.516 -1.4622 0.6022 -1.3762 0.0858 -0.9462 1.0322 0.2581 0.5162 0.5161 0.7741 0.8601 0.8602 0.9463 1.0322 1.0321 1.3761 1.1182 0.6022 0.6881 -0.0861 0.4302 -0.9461 -0.0861 -1.9783 -0.6019 -1.2043 -0.0861 -1.1181 -0.0859 -0.7742 -0.2581 -0.9462 0.0859 -1.2903 0.2581 -1.1182 0.7742 -0.7741 1.1182 -0.2581 1.2903 0 1.2041 0.1721 1.8922 0.4302 1.9784 0.9462 5.8491 0.43 0.9462c0,0 0.0861,0.5161 0.0861,1.0322 0,0.516 0.602,1.2903 0.602,1.2903l0.7742 0.6019 0.7742 1.1182 0.774 1.8924 0.6021 0.8601 0.9463 1.1183 0.7742 0.6881 1.2041 0.2581 0.9462 -0.4302 0.258 -1.2041 0.0861 -1.5484 -0.1721 -1.3761 -0.7742 -1.1183 -0.8601 -0.7742 -1.5484 -0.43 0 -1.7203 -0.6881 -0.6882 -0.4302 -1.0321 -0.6881 -2.3224 -0.258 -1.8064 -0.6881 -1.7203 -0.0861 -1.2041 0.2581 -0.8601 0.5161 -0.3441 0.9461 0.258 1.7204 0.8601 1.2902 0.6883 1.5482 0.602 1.3764 0.6021 0.8601 0.7742 1.3761 1.2041 1.1182 0.4302 1.3762 0.172 1.6343 0 0.8601 0.0859 -0.43 0.8601 0.1721 0.8603c0,0 0.4301,0.602 0.6021,1.0322 0.172,0.43 0.9461,1.204 0.9461,1.204l1.2044 1.3764 1.5482 1.3762 1.3763 1.3761 1.7202 1.2044 1.6343 1.2041 1.9783 1.1182 1.3762 1.2041 2.2364 1.4623 1.6342 1.7202 1.1182 1.1181 0.602 1.7204 0.4302 1.2901c0,0 0.86,0.9463 1.2902,0.9463 0.43,0 0.8601,0 0.8601,0l0.9463 -1.2903 0.9462 -1.8922 0.0859 -2.0645 0.086 -0.7741 0.5161 -1.1181c0,0 0.4301,-0.6022 0.9461,-0.6022 0.5162,0 0.6883,0.172 0.6883,0.172l-0.7742 1.0322c0,0 -0.6021,0.6021 -0.6021,1.0323 0,0.4301 0,1.3762 0,1.3762l-0.1721 1.3763 -0.5161 1.1181 -0.688 0.8602 -1.0322 1.3762 -0.3441 1.0321 -0.5162 1.2044c0,0 -0.5161,1.7202 -0.5161,2.2363 0,0.5161 0.3441,0.9463 0.3441,1.5482 0,0.6021 0.2581,1.6343 0.4301,2.1505 0.1721,0.5161 0.6022,1.8064 0.6022,1.8064 0,0 0.344,0.8601 0.6881,1.2901 0.3441,0.4301 1.1182,1.9783 1.1182,1.9783l0.8601 1.0323 0.344 1.0322 0.6881 0.9462 0.3441 0.6882c0,0 -0.0859,0.6881 -0.3441,1.1182 -0.2579,0.43 -0.6021,1.0321 -0.9462,1.5482 -0.344,0.5161 -1.2901,1.1182 -1.2901,1.1182l-1.1182 1.7202 -1.6343 1.2044 -0.9463 0.5161 -1.1182 0.4301 -1.2902 1.4621 -0.602 1.0323 -1.5483 1.7201 -1.2041 1.9783 -0.5161 1.2902 0.3441 1.3762 1.204 0.2582 4.8169 -2.1504 0.172 -0.6882 0.0859 -1.1181 0.2582 -0.7743 1.3761 -0.9462 0.7743 -1.0321 0.344 -1.1182 0.1721 -0.6881 0.9462 -0.602 0.774 -0.7742 0.4302 -0.6881 1.2041 -1.0323 0.9462 -0.7741 2.0645 -1.2043 1.2041 -0.9461 0.2581 -3.3548 -0.8602 -1.0321 -0.602 -1.1183c0,0 -0.0861,-0.7741 -0.0861,-1.2902 0,-0.5161 0,-1.7202 0,-1.7202 0,0 0.1721,-0.6881 0.4302,-1.1182 0.258,-0.4302 1.2903,-1.3762 1.2903,-1.3762l1.5482 -1.2902 1.6343 -0.9463 1.4623 -1.6343 1.8063 -2.2364 0.9462 -1.4621 0.8602 -1.9783 0.6019 -1.5484 0 -1.2902c0,0 0.1722,-0.7741 0.6021,-0.5161 0.4302,0.2581 0.4302,0.344 0.6022,0.8601 0.1721,0.5162 0.1721,1.2044 0.1721,1.8924 0,0.6881 -0.2582,1.4622 -0.2582,1.4622l0.0861 1.7202 0.0859 1.5484 0.6021 0.5161 0 -1.0322 0.1721 -1.1182 0.344 -1.1182 0 -1.0322 0.4302 -1.0323c0,0 0.5161,0.6883 0.602,1.2044 0.086,0.5161 0.2581,1.4622 0.2581,1.4622 0,0 0,0.8601 -0.2581,1.4621 -0.258,0.6021 -0.0859,0.7742 -0.4301,1.2044 -0.344,0.43 -0.9462,1.3761 -0.9462,1.3761 0,0 -0.6022,0.6022 -0.6881,1.1183 -0.0861,0.516 -0.1721,0.86 -0.1721,1.4622 0,0.6021 0.43,1.5482 0.43,1.5482l0.344 -0.6882 0.1722 -1.1181 0.602 -1.4622 1.0322 -1.2902 1.2043 -2.0644 0.6882 -2.5806 0.086 -1.6343 -0.1722 -1.118 -0.602 -1.0323 -0.2581 -0.8601 0.5161 -0.2581 0.7742 1.2044c0,0 0.086,0.0858 0.2581,0.6019 0.1721,0.5162 0.1721,-0.0859 0.2579,0.7742 0.0861,0.8601 0,0.8601 0.1721,1.4622 0.1721,0.6022 0.1721,0.8601 0.344,1.3762 0.1721,0.5162 0.3441,0.8602 0.4302,1.2903 0.0859,0.4302 0.6021,1.1181 0.6021,1.1181l0 -0.688 -0.4301 -0.7743 0.2581 -1.0321 -0.1721 -1.0322 0.258 -1.1181 0.172 -1.3764 -0.43 -1.118 -0.4301 -1.1182 0 -0.8602 1.6343 -0.8602 2.0643 -1.2901 0.9462 -1.1182 1.1182 -1.1182 0.6021 -1.8064 0.258 -1.8924 0.344 -2.3224 -0.344 -2.6665 -0.43 -1.9783 -0.1721 -1.8922 -0.1722 -1.8064 0.3442 -1.7203 0.6881 -1.7202 1.1182 -1.5484 0.602 -0.8601 0.5671 -2.1497 -0.9111 0.6015 -0.5161 0.602 -0.172 0.5161 -0.9463 1.1182 -0.7742 0.9463 -0.6881 1.0321 -0.43 0.8601 -0.7742 0 -0.344 -1.1181c0,0 0,-0.6881 0,-1.2043 0,-0.5161 0.344,-1.6343 0.344,-1.6343l0.516 -1.2043 0.5161 -1.2902 1.1182 -1.2903 0.6881 -1.4622 0.3441 -1.8922 -0.7741 1.0321 -1.0323 1.2902 -1.2041 1.3764 -0.9462 1.0322 -1.0322 1.118 -0.516 0.6883 -0.5161 -0.4302 -0.1721 -0.9462 0.344 -1.4621 0.5161 -1.4624 0.43 -1.6341 1.2903 -2.0645 1.2044 -1.2903 1.0321 -0.774c-0.516,-0.0861 -1.5482,0.5161 -1.5482,0.5161l-1.2044 1.2041 -2.4083 2.5805 -0.9462 1.8923 -0.5161 1.7203 -0.1721 1.5482c0,0 -0.2581,1.2043 -0.1721,1.6343 0.0859,0.4302 0.1721,1.1183 0.258,1.7204 0.0861,0.6019 0,1.118 0.344,1.8922 0.344,0.7742 0.6022,1.2903 0.7742,1.8923 0.1721,0.6021 0.344,1.0323 0.5161,1.8065 0.172,0.774 0.086,0.9461 0.2581,1.5482 0.1721,0.6021 0.258,1.4623 0.258,1.8923 0,0.4301 0.2581,1.6343 0.2581,1.6343l-0.1721 1.8924c0,0 0,0.86 -0.086,1.2902 -0.0859,0.43 -0.3441,0.602 -0.5161,1.2041 -0.1721,0.6022 -0.1721,1.1183 -0.5161,1.5483 -0.344,0.4301 -0.6881,0.9462 -1.0321,1.3763 -0.3441,0.43 -1.0323,1.0321 -1.0323,1.0321 0,0 -0.5161,0.4302 -1.2043,0.7743 -0.6881,0.344 -1.0321,0.2579 -1.4622,0.516 -0.43,0.258 -0.5161,0.344 -1.1182,0.4302 -0.602,0.0859 -1.9783,0.172 -1.9783,0.172l0.0861 -0.7741 -0.6022 -1.0322 -0.774 -1.2903 -0.8603 -1.8063 -1.1182 -1.3763 -1.118 -1.1181 -0.7742 -0.9462 -1.5483 -1.2044 -1.3763 -1.2041 -1.2903 -0.8601 -1.8922 -1.4623 -1.8063 -1.3761 -1.8924 -2.1504 -1.8923 -2.4945 -1.1182 -1.8062 -0.7742 -1.4623 -0.43 -1.6342 0.172 -1.8064c0,0 0.7741,0.3441 1.2041,0.602 0.4302,0.2582 1.7204,0.2582 1.7204,0.2582l0.9461 0.4301 1.2043 0.43 1.0322 0.9463 1.3762 1.0321 1.1182 -0.258 -0.516 -0.4301 -0.6882 -0.344 -0.7742 -1.1183 -0.6881 -0.86 -0.7743 -0.5161 -0.86 -0.344 1.2902 -0.1721 1.2041 0.774 0.9463 0.7742c0.3441,-0.516 0.1721,-0.9462 0.1721,-0.9462l-1.3762 -0.8601 -0.9463 -0.7742 -1.3763 -0.6882 -1.2041 -0.344 -0.344 -0.6881 0.6881 0.0859 1.0322 0.4302 0.7741 0.172 0.7743 0.1721 1.1182 0.6021c0,0 0.6019,0.0859 1.2041,0.258 0.6021,0.1721 1.1182,0.344 1.6343,0.344 0.516,0 0.7741,0.0861 1.2041,-0.0859 0.4302,-0.172 1.2902,-0.6021 1.2902,-0.6021l0.7743 -0.9463 -1.0322 0.6021c0,0 -0.7742,0.4302 -1.2903,0.4302 -0.5161,0 -1.1182,0 -1.1182,0 0,0 -0.9463,-0.5162 -1.2041,-0.9462 -0.2581,-0.4302 -0.4301,-0.6881 -0.9462,-1.0322 -0.5161,-0.344 -1.2044,-0.7741 -1.6343,-0.7741 -0.4302,0 -1.2903,-0.2582 -1.2903,-0.2582l-0.9463 -0.6881c0,0 0.5161,0.0861 0.9463,0.172 0.4301,0.0861 1.3762,0 1.3762,0l0.6882 -0.2579c0,0 0.1721,-0.0861 0.9461,0 0.7742,0.0859 0.4303,-0.4302 1.1182,0.1721 0.6882,0.6019 1.4623,0.774 1.4623,0.774l0.172 -0.43 -0.7742 -0.6022 -0.6019 -0.5161 -0.8603 -0.6881c0,0 -0.5161,-0.344 -1.0322,-0.344 -0.516,0 -1.0321,0 -1.0321,0l-0.344 -0.5161c0,0 0.0859,-0.1722 0.6881,-0.0861 0.6022,0.0861 1.0322,0.1721 1.0322,0.1721l1.1182 0.4302c0,0 0.516,0.43 0.9463,0.5161 0.43,0.0859 1.0321,0.1721 1.0321,0.1721l1.3762 0.086c0.1722,-0.4302 -0.0859,-0.8603 -0.0859,-0.8603l-1.1183 0 -1.1182 -0.8601 -0.6019 -0.7741c0,0 -0.6022,0 -1.0323,-0.0859 -0.43,-0.0861 -0.9461,-0.2582 -1.3762,-0.4302 -0.4302,-0.1721 -0.7742,-0.3441 -0.7742,-0.3441 0,0 -0.344,-0.4301 0.0861,-0.4301 0.43,0 1.4622,0.5162 1.4622,0.5162l0.8601 0.1721 0.4301 0 -0.6882 -0.5161c-0.3441,-0.4301 -0.3441,-0.7742 -0.3441,-0.7742l0.9463 0.1721 0.516 0 1.1183 0.43 0.9462 0.6021 0.6882 0.6882 0.6881 0 -0.43 -0.3441c0,0 -0.5162,-0.2579 -0.6021,-0.6881 -0.0861,-0.4302 -0.0861,-0.516 -0.3441,-0.9463 -0.2581,-0.43 -0.2581,-0.6881 -0.6881,-0.9462 -0.4302,-0.2579 -0.4302,-0.43 -1.0323,-0.602 -0.602,-0.172 -1.2903,-0.4302 -1.2903,-0.4302l-0.8601 -0.86c0,0 -0.1721,-0.5161 -0.602,-0.7742 -0.4301,-0.258 -0.7741,-0.3441 -0.7741,-0.3441l0.0859 -0.86 1.5484 0.4301 1.1181 0.0859c0,0 0.258,0.0861 0.5161,0.5161 0.258,0.4302 0.602,0.8601 0.602,0.8601 0,0 0.6021,0.6883 1.0323,0.6883 0.43,0 0.258,0 0.9461,0.0859 0.6883,0.086 1.4622,0 1.4622,0l0.6022 -0.258 -0.7742 -0.2581 -0.602 -0.2581 -0.6883 -0.43 -0.602 -0.5161 -0.4302 -0.7742 -0.172 -0.6021 -0.7742 -0.7741c0,0 -0.602,-0.344 -1.0322,-0.6021 -0.4301,-0.2581 -0.7741,-0.4302 -1.204,-0.6881 -0.4303,-0.2582 -0.7743,-0.5161 -0.7743,-0.5161l-0.516 -0.6883 -0.0861 -0.6881 0.7742 0.6021 1.1183 0.9463 0.688 0.43 0.8601 0.344 0.9463 0.6883 0.5161 0.6019 0.6881 0.6882 0.8603 0.4301 0.6881 -0.2579 -0.7742 -0.6021 -0.6881 -0.6882 -0.1721 -0.9462 -0.5161 -0.8601 -1.1182 -0.4302 0 -0.6881 -0.6021 -0.9463 -0.8601 -0.9462 -0.7742 -0.6882 -0.5161 -0.6021 -0.2579 -0.6881c0,0 -0.2582,0.172 0.43,-0.0859 0.6881,-0.2582 0.8601,0.344 0.8601,0.344l1.2044 0.7742 0.9462 0.2579c0,0 0.5161,-0.0859 1.0322,0 0.516,0.0861 0.6881,0.2582 1.204,0.344 0.5161,0.0861 0.9463,0 0.9463,0l0.5161 -0.5161 -0.6881 -0.0858 -0.9463 -0.4302c0,0 -0.5161,-0.4302 -0.9462,-0.516 -0.4301,-0.0861 -0.5161,-0.1721 -0.9462,-0.1721 -0.4301,0 -0.7741,-0.0861 -0.7741,-0.0861l-0.5161 -0.43 -0.4302 -0.5161 -0.0859 -0.5162c0,0 -0.6883,-0.5161 -0.1721,-0.43 0.5161,0.0859 0.43,0.172 0.8602,0.344 0.43,0.1721 0.2579,0.1721 0.7741,0.258 0.5161,0.086 0.43,0.2581 0.8601,0.086 0.4301,-0.172 0.8601,-0.172 0.8601,-0.172 0,0 0.2581,-0.0861 0.8601,0 0.6022,0.0859 0.5161,0 1.0322,0.2579 0.5162,0.2581 0.9462,0.6021 0.9462,0.6021l0.6882 0.344 -0.1721 -0.774 -0.5161 -0.4301c0,0 -0.344,-0.5161 -0.8601,-0.7743 -0.516,-0.2579 -0.4301,-0.344 -0.86,-0.43 -0.4303,-0.0861 -1.0322,-0.1722 -1.0322,-0.1722 0,0 -0.4302,-0.2579 -1.0323,-0.2579 -0.602,0 -0.6882,0.172 -1.2041,0 -0.5161,-0.1721 -0.7743,-0.2582 -1.2043,-0.6882 -0.4301,-0.4302 -0.172,-0.4302 -0.7741,-0.7742 -0.6022,-0.344 -0.9463,-0.43 -0.9463,-0.43l-0.43 -0.6021c1.118,-0.1721 1.2901,0 1.7202,0.1721 0.4301,0.172 0.172,0.172 0.7742,0.2579 0.6019,0.0861 0.8601,0.0861 0.8601,0.0861l1.6343 0.2579 0.6021 0.2581c0,0 0.2579,0.2581 0.6881,0.6881 0.43,0.4303 0.7741,0.6022 0.7741,0.6022l0.7741 0.344 0.5161 0 -0.602 -0.6021 -0.5162 -0.6882c0,0 0.0861,-0.43 -0.43,-0.774 -0.5161,-0.3442 -0.4302,-0.3442 -0.9463,-0.6021 -0.516,-0.2582 -1.0321,-0.6022 -1.0321,-0.6022 0,0 -0.2581,0.2582 -0.6882,-0.0859 -0.4301,-0.344 -0.6021,-0.5162 -1.1181,-0.8602 -0.5161,-0.344 -0.5161,-0.344 -1.0322,-0.7741 -0.5162,-0.4301 -0.2581,-0.2581 -0.8603,-0.5162 -0.6019,-0.2579 -1.2041,-0.43 -1.2041,-0.43l-0.2581 -0.344c-0.4377,-0.5839 0.7318,-0.8531 0.7318,-0.8531 0,0 0.4658,-0.0288 0.8961,-0.3081 0.4304,-0.2794 1.1324,-0.2723 1.1324,-0.2723l0.602 -0.2223c0,0 0.5944,-0.3226 0.1645,-0.4946 -0.4302,-0.172 -0.3654,-0.129 -0.8814,-0.129 -0.5161,0 -0.4089,-0.215 -1.011,-0.215 -0.602,0 -0.43,0 -0.9461,0 -0.5162,0 -0.6883,0 -1.2044,0 -0.5161,0 -0.9462,0 -0.9462,0 0,0 -0.344,0 -0.774,-0.344 -0.4302,-0.3442 -0.8602,-0.7742 -0.8602,-0.7742 0,0 -0.602,-0.344 -1.0323,-0.5161 -0.43,-0.1721 -0.344,-0.344 -0.9461,-0.4302 -0.6021,-0.0859 -0.7741,-0.172 -1.2043,-0.2579 -0.4301,-0.0861 -0.6882,0.344 -1.2903,-0.0861 -0.602,-0.4301 -0.774,-0.6881 -0.774,-0.6881l-0.7742 -0.5161 -0.4302 -0.4302 -0.5161 -0.516 -0.43 -0.6882z"/>
   <path class="fil0" d="M93.2243 22.7511l-0.0861 0.602 0 0.4301c-0.344,0.4302 -0.6882,0.9463 -0.6882,0.9463 0,0 0.0861,0.43 0.5161,0.43 0.4303,0 0.7742,0.1721 0.7742,0.1721l0.7742 0.172 0.4301 -0.172 -0.0859 -0.602 -0.6022 -0.6882 -0.344 -0.4301 -0.344 -0.4302 -0.344 -0.43z"/>
   <path class="fil2" d="M37.3405 18.5129l0 9.7889c40.1241,-17.5222 80.4166,-17.1644 120.5416,-0.7046l0 -10.3768 -60.2739 -9.5657 -60.2677 10.8582z"/>
   <path class="fil3" d="M37.3405 14.9878l0 3.5153 60.2677 -10.8844 60.2739 9.5628 0 -3.8029 -60.1606 -10.2669c0,0 -60.381,11.5564 -60.381,11.8761z"/>
   <polygon class="fil4" points="37.3405,14.9187 37.3405,11.4652 97.6081,0 157.8821,10.3956 157.8821,13.3963 97.6081,3.2484 "/>
   <path class="fil0" d="M87.5048 122.5509c-0.2041,-0.1873 -0.4082,-0.2325 -0.6124,-0.136 -0.0681,0.136 -0.1361,0.2721 -0.204,0.4083 -0.4988,0.1815 -0.9978,0.1813 -1.4973,0 -1.8144,-0.9566 -3.9913,-1.5259 -5.7842,-0.1362 -1.3902,1.2328 -2.8807,4.0488 1.4291,6.6688 1.6105,1.0208 4.3099,1.6333 5.8523,2.4499 3.1917,2.0965 0.509,6.1204 -3.4026,6.1925 -3.7112,0.0622 -6.2644,-3.1553 -4.8315,-4.5593 1.3354,0.7077 2.1632,-0.1155 2.1094,-1.1569 -0.0491,-1.0419 -1.6429,-1.8773 -2.722,-0.5444 -2.4034,1.8739 -0.1378,8.0665 5.7163,7.3494 4.758,-0.6721 6.833,-3.0712 5.7843,-7.5534 -1.1708,-2.6469 -4.9133,-3.6674 -8.0981,-5.1037 -1.8668,-1.387 -1.6221,-3.5674 2.1777,-3.1303 2.0132,0.6121 3.5223,1.8589 4.6272,3.7427 0.1588,-0.091 0.3175,-0.1816 0.4765,-0.2723 -0.3403,-1.4064 -0.6806,-2.8129 -1.0208,-4.219z"/>
   <path class="fil0" d="M115.0023 125.1913c-2.4483,1.3269 -3.2335,0.6553 -3.0868,-0.4001 1.2323,-3.2313 6.1972,-0.8202 8.2315,-0.8004 -1.5064,1.6934 -2.6382,3.4282 -2.9153,5.2589 -1.9044,0.0959 -2.3695,0.9109 -2.6296,1.8291 0.4946,-0.3124 1.0723,-0.4863 1.7721,-0.4574 -0.009,1.2607 -1.7336,4.1622 -2.9362,5.4446 -2.5263,2.9283 -8.329,0.3987 -6.667,-3.158 0.6541,0.6455 2.4783,0.2939 2.313,-1.1432 -0.144,-1.376 -1.7114,-1.7145 -2.7131,-0.686 -1.7165,1.3348 -1.7706,7.4428 4.6302,7.7168 5.2556,-0.2975 7.1656,-5.3837 8.2885,-8.1742 2.2202,0.0194 3.194,-0.7922 3.3154,-2.172 -0.8,0.3436 -1.6547,0.5774 -2.6294,0.5715 0.2544,-1.6577 0.7495,-3.4469 2.4091,-5.104 3.9698,0.2523 7.4479,-1.7694 8.7945,-2.3269 0.2244,-0.297 0.1861,-0.5065 -0.1144,-0.6287 -9.2221,2.5913 -12.3535,0.2233 -15.4908,0.5896 -3.6002,0.295 -6.6499,3.6405 -4.573,5.2981 1.8119,1.3305 3.6623,-0.1758 4.0013,-1.6576z"/>
   <path class="fil3" d="M130.628 75.8941c3.236,5.4094 -1.1621,12.4019 -3.4576,12.3396 3.0384,-3.212 4.076,-7.38 3.4576,-12.3396z"/>
   <polygon class="fil3" points="70.6717,60.3778 71.1462,60.8523 71.485,61.191 72.2305,61.5978 72.1628,61.1233 71.6884,60.6489 71.2816,60.3101 "/>
   <polygon class="fil3" points="68.1639,55.159 67.4184,55.2945 67.0116,55.4977 67.1473,55.9045 67.6895,55.8367 68.5028,55.7688 68.5028,55.4299 "/>
   <path class="fil3" d="M65.7238 58.0733l-0.4744 0.2033 -0.2033 0.61 -0.4066 0.6778 -0.0679 0.7455 -0.2032 0.6098 0.1355 0.5423 0.4744 -0.2033 0.4068 -0.6777 0.2032 -0.6777c0,0 0.0679,-0.2712 0.2033,-0.61 0.1356,-0.339 0.1356,-0.6101 0.1356,-0.6101l-0.2034 -0.6099z"/>
   <path class="fil3" d="M70.6717 69.8667l0.4066 0.2711 0.6778 0.5421 0.8133 0.5422 0.6778 0.4745 0.6101 0.4068 0.5422 -0.339c0,0 0.1354,-0.2032 -0.2033,-0.339 -0.3389,-0.1354 -0.6779,-0.3388 -0.6779,-0.3388l-0.6098 -0.2711 -0.3391 -0.2033 -0.4743 -0.2033 -0.6101 -0.2712 -0.8133 -0.2711z"/>
   <polygon class="fil3" points="65.0461,66.2066 64.6395,66.7488 64.6395,67.2232 65.0461,67.2232 65.1817,66.681 "/>
   <path class="fil3" d="M65.5205 72.6456l-0.5422 0.4067 -0.0677 0.6776 0.0677 1.0167 0.2034 0.6101 0.2712 0.7455 0.4066 0.6777 0.339 0.2712c0,0 0.2033,-0.2712 0.1354,-0.6778 -0.0678,-0.4067 -0.0678,-0.1356 -0.2032,-0.5422 -0.1356,-0.4068 -0.2033,-0.4068 -0.2712,-0.8812 -0.0678,-0.4745 -0.0678,-0.5422 -0.0678,-0.881 0,-0.3391 -0.0678,-0.8813 -0.0678,-0.8813l-0.2033 -0.5421z"/>
   <polygon class="fil3" points="61.0472,74.8145 60.7761,75.221 61.1828,75.4243 "/>
   <polygon class="fil3" points="70.7394,86.4044 70.4006,86.8788 71.0106,87.2177 71.4172,86.9466 71.2816,86.54 "/>
   <path class="fil3" d="M90.3951 106.8734l-0.4068 0c0,0 -0.2033,0.271 0.2712,0.4066 0.4744,0.1355 0.4744,0.2033 0.8812,0.2712 0.4066,0.0678 0.4066,0.0678 0.8133,0.2033 0.4068,0.1354 0.1356,0 0.61,0.2032 0.4744,0.2033 0.2032,0.2712 0.7455,0.339 0.5423,0.0678 0.4067,0.1354 1.0167,0.0678 0.6099,-0.0678 0.4066,-0.2712 0.8811,-0.0678 0.4744,0.2033 0.8812,0.2712 0.8812,0.2712l-0.4744 -0.4745 -0.5423 -0.2711 -0.4744 0c0,0 0,0.1354 -0.339,0.0676 -0.3389,-0.0676 -0.6099,-0.2033 -0.6099,-0.2033 0,0 -0.2034,-0.2711 -0.5422,-0.3388 -0.3391,-0.0678 -0.6778,-0.1356 -1.0167,-0.1356 -0.339,0 -0.6101,0 -0.6101,0l-0.6777 -0.2032 -0.4066 -0.1355z"/>
   <polygon class="fil3" points="86.7349,105.9922 87.2772,105.9244 87.2772,106.3311 86.9384,106.5344 86.3962,106.3311 "/>
   <polygon class="fil3" points="79.0761,105.7211 80.2961,105.5178 80.3639,106.1278 79.8217,106.4666 79.2118,106.4666 "/>
   <polygon class="fil3" points="99.9515,107.3478 99.5449,107.6189 99.3416,108.161 100.0192,108.0256 100.2226,107.6865 "/>
   <polygon class="fil3" points="96.8338,127.7488 96.4271,128.1554 95.885,128.4943 95.614,128.9687 95.9528,129.2399 96.5627,129.1042 97.105,128.5621 "/>
   <polygon class="fil3" points="100.0872,123.1399 99.5449,123.3433 99.1383,123.75 99.0705,124.2244 99.6128,124.2244 100.0192,123.9532 "/>
   <path class="fil3" d="M106.7971 116.9044l-0.5422 0.4746 -1.0843 0.5421 -0.4068 0.6101 -0.6099 0.8133 -0.6101 0.6099 -0.8134 0.8135 -0.5422 0.7455 0.4068 -0.0679c0,0 0.3388,-0.4066 0.6776,-0.5422 0.3391,-0.1354 1.4234,-0.881 1.4234,-0.881l0.8812 -1.1522 0.5423 -0.7455 0.6098 -0.4746 0.0678 -0.7455z"/>
   <polygon class="fil3" points="110.0504,115.1421 109.5082,115.4133 109.3049,115.9555 109.915,115.9555 "/>
   <path class="fil3" d="M104.696 106.67l-0.4067 0.2711 0 0.5423 0.1355 0.61 0.339 0.4745 0.339 0.9489 0.2032 0.5422 0.2033 -0.339c0,0 -0.2033,-0.6099 -0.2033,-0.9488 0,-0.3391 -0.0678,-0.8135 -0.0678,-0.8135l-0.0676 -0.5422 -0.4746 -0.7455z"/>
   <path class="fil3" d="M104.1539 97.6555l-0.7455 0.4068 -0.4746 0.8134 -0.271 0.6777 0 0.9489 0 0.6776 0.3388 0.3391 0.2033 -0.8135c0,0 0.2034,-0.2032 0.2711,-0.5422 0.0678,-0.3388 0.1357,-0.6778 0.1357,-0.6778l0.3388 -0.6776 0.2711 -0.4068 -0.0676 -0.7455z"/>
   <path class="fil3" d="M117.3705 92.3011l-0.4745 0.3388 0.2712 0.4068 0.271 0.3388c0,0 -0.0676,0.4068 0,0.8134 0.0678,0.4068 0.0678,0.8134 0.0678,0.8134l0.4744 -0.61 0 -0.5421 0 -0.8134 -0.2033 -0.4744 -0.4065 -0.2712z"/>
   <path class="fil3" d="M103.8827 81.66l-0.6101 0.0677 -0.3389 0.2712c0,0 0,0.2033 0,0.5423 0,0.3388 -0.1355,0.6777 -0.1355,0.6777l-0.2712 0.7455 0.5423 0.339c0.2712,-0.4745 0.1355,-0.339 0.339,-0.7455 0.2033,-0.4068 0.4066,-0.6779 0.4066,-0.6779l0.0678 -0.3388 0 -0.8812z"/>
   <path class="fil3" d="M86.0572 78.6101l-0.339 -0.2034c0,0 -0.4744,0 -0.4066,0.3389 0.0678,0.339 0,0.1355 0.1356,0.6777 0.1355,0.5423 0.5421,0.8813 0.5421,0.8813l0.8812 1.1521 1.22 0.8812 1.0844 1.0844c0,0 0.3389,0.4067 0.8133,0.6778 0.4745,0.2712 0.8134,0.5421 1.1523,0.7455 0.3388,0.2033 0.5422,0.3388 0.881,0.6099 0.3391,0.2711 0.2033,0.2033 0.6778,0.4744 0.4745,0.2712 0.8134,0.4745 0.8134,0.4745 0,0 0.6777,0 0.2711,-0.3388 -0.4066,-0.3391 -0.2711,-0.3391 -0.6776,-0.6779 -0.4068,-0.3388 -0.5423,-0.5421 -0.9489,-0.8811 -0.4068,-0.3389 -0.6779,-0.4744 -1.0167,-0.8134 -0.339,-0.3388 -0.339,-0.3388 -0.6778,-0.6777 -0.3389,-0.339 -0.6778,-0.61 -0.9489,-0.9488 -0.2712,-0.3391 -0.4066,-0.4068 -0.7456,-0.8135 -0.3388,-0.4066 -0.4065,-0.4066 -0.8132,-0.8134 -0.4068,-0.4066 -0.8812,-0.8134 -0.8812,-0.8134l-0.4067 -0.4066 -0.61 -0.6099z"/>
   <path class="fil3" d="M97.3747 62.4263c0,0 -0.1187,0.0678 -0.1693,0.0763 -0.0509,0.0086 -0.1777,0.0512 -0.1777,0.0512 0,0 -0.0681,0.0082 -0.0934,0.0761 -0.0253,0.068 -0.059,0.0765 -0.0253,0.1528 0.034,0.0763 0.0253,0.1445 0.127,0.1528 0.1015,0.0083 0.1019,0.0337 0.1779,0.0337 0.0761,0 0.0421,0 0.1608,0 0.1183,0 0.1436,0.0173 0.1946,-0.0337 0.0509,-0.0511 0.0424,-0.0424 0.0846,-0.1104 0.0422,-0.0679 0.1015,-0.1272 0.1015,-0.1272l-0.0254 -0.1359 -0.0761 -0.0679 -0.1356 -0.0424 -0.1436 -0.0254z"/>
   <path class="fil3" d="M96.9679 59.5119c0,0 -0.1187,0.0678 -0.1692,0.0763 -0.051,0.0087 -0.1778,0.051 -0.1778,0.051 0,0 -0.068,0.0083 -0.0932,0.0763 -0.0254,0.068 -0.0592,0.0765 -0.0254,0.1526 0.0341,0.0765 0.0254,0.1445 0.1271,0.1529 0.1016,0.0082 0.1017,0.0338 0.1777,0.0338 0.0763,0 0.0421,0 0.1608,0 0.1185,0 0.1438,0.0171 0.1946,-0.0338 0.0509,-0.051 0.0424,-0.0423 0.0846,-0.1105 0.0422,-0.0676 0.1015,-0.127 0.1015,-0.127l-0.0252 -0.136 -0.0763 -0.0678 -0.1354 -0.0425 -0.1438 -0.0253z"/>
   <path class="fil3" d="M104.3185 36.6213c0,0 -0.0715,0.0405 -0.1021,0.046 -0.0302,0.0055 -0.1071,0.0308 -0.1071,0.0308 0,0 -0.0408,0.0051 -0.0563,0.046 -0.0149,0.0409 -0.0354,0.046 -0.0149,0.092 0.0201,0.0463 0.0149,0.0871 0.0759,0.0922 0.0618,0.005 0.0618,0.0207 0.1074,0.0207 0.0462,0 0.0256,0 0.0971,0 0.0722,0 0.0868,0.01 0.1176,-0.0207 0.0305,-0.0305 0.025,-0.0255 0.0509,-0.0663 0.0255,-0.0411 0.0611,-0.077 0.0611,-0.077l-0.0155 -0.0818 -0.0456 -0.0413 -0.0817 -0.0254 -0.0868 -0.0151z"/>
   <path class="fil3" d="M104.5572 37.9055c0,0 -0.1211,0.0691 -0.1729,0.0778 -0.052,0.0089 -0.182,0.0522 -0.182,0.0522 0,0 -0.0695,0.0087 -0.0954,0.0781 -0.0257,0.0693 -0.0604,0.0784 -0.0257,0.1562 0.0344,0.0784 0.0257,0.1478 0.1296,0.1563 0.1043,0.0088 0.1045,0.0348 0.1824,0.0348 0.0778,0 0.043,0 0.1641,0 0.1218,0 0.1476,0.0175 0.1996,-0.0348 0.0516,-0.052 0.0431,-0.0432 0.0864,-0.1128 0.0434,-0.0692 0.104,-0.1304 0.104,-0.1304l-0.0262 -0.1388 -0.0778 -0.0696 -0.1385 -0.0432 -0.1476 -0.0259z"/>
   <path class="fil3" d="M104.5136 39.2169c0,0 -0.1211,0.0691 -0.1729,0.0778 -0.0519,0.0091 -0.182,0.0524 -0.182,0.0524 0,0 -0.0695,0.0087 -0.0952,0.078 -0.0259,0.0694 -0.0605,0.0783 -0.0259,0.1563 0.0345,0.0784 0.0259,0.1478 0.1296,0.1563 0.1044,0.0086 0.1045,0.0348 0.1823,0.0348 0.078,0 0.0431,0 0.1642,0 0.1217,0 0.1477,0.0173 0.1995,-0.0348 0.0518,-0.052 0.0433,-0.0434 0.0867,-0.1127 0.0432,-0.0695 0.1039,-0.1305 0.1039,-0.1305l-0.0262 -0.1388 -0.0777 -0.0698 -0.1386 -0.0432 -0.1477 -0.0259z"/>
   <path class="fil3" d="M104.3395 40.3534c0,0 -0.1212,0.0691 -0.173,0.0778 -0.0518,0.009 -0.1821,0.0522 -0.1821,0.0522 0,0 -0.0693,0.0088 -0.0952,0.0781 -0.0259,0.0693 -0.0603,0.0784 -0.0259,0.1562 0.0347,0.0784 0.0259,0.148 0.1297,0.1563 0.1041,0.0088 0.1046,0.0348 0.1824,0.0348 0.0778,0 0.043,0 0.1642,0 0.1217,0 0.1476,0.0175 0.1995,-0.0348 0.0516,-0.052 0.0433,-0.0432 0.0864,-0.1127 0.0434,-0.0693 0.104,-0.1305 0.104,-0.1305l-0.026 -0.1387 -0.078 -0.0697 -0.1384 -0.0433 -0.1476 -0.0258z"/>
   <path class="fil3" d="M104.3176 41.7633c0,0 -0.1734,0.0991 -0.2476,0.1117 -0.0745,0.0124 -0.26,0.0746 -0.26,0.0746 0,0 -0.0993,0.0122 -0.1364,0.1115 -0.0369,0.0993 -0.0864,0.1117 -0.0369,0.2235 0.0496,0.1115 0.0369,0.2112 0.1856,0.2235 0.1487,0.0122 0.1488,0.0495 0.2601,0.0495 0.1114,0 0.0618,0 0.2352,0 0.1735,0 0.2104,0.0251 0.2848,-0.0495 0.0743,-0.0747 0.062,-0.062 0.1239,-0.1615 0.0617,-0.0992 0.1486,-0.1861 0.1486,-0.1861l-0.0373 -0.1986 -0.1112 -0.0995 -0.1983 -0.0619 -0.2104 -0.0371z"/>
   <path class="fil3" d="M104.3176 43.2935c0,0 -0.1734,0.0991 -0.2476,0.1114 -0.0745,0.0127 -0.26,0.0746 -0.26,0.0746 0,0 -0.0993,0.0122 -0.1364,0.1116 -0.0369,0.0994 -0.0864,0.1118 -0.0369,0.2236 0.0496,0.1115 0.0369,0.2112 0.1856,0.2235 0.1487,0.0122 0.1488,0.0494 0.2601,0.0494 0.1114,0 0.0618,0 0.2352,0 0.1735,0 0.2104,0.0251 0.2848,-0.0494 0.0743,-0.0746 0.062,-0.0621 0.1239,-0.1614 0.0617,-0.0995 0.1486,-0.1862 0.1486,-0.1862l-0.0373 -0.1988 -0.1112 -0.0992 -0.1983 -0.0621 -0.2104 -0.0369z"/>
   <path class="fil3" d="M104.1871 44.8671c0,0 -0.1734,0.0991 -0.2478,0.1115 -0.0743,0.0124 -0.26,0.0746 -0.26,0.0746 0,0 -0.0993,0.0122 -0.1362,0.1115 -0.0371,0.0995 -0.0866,0.1119 -0.0371,0.2235 0.0496,0.1117 0.0371,0.2112 0.1856,0.2235 0.1487,0.0122 0.149,0.0495 0.2603,0.0495 0.1112,0 0.0618,0 0.2352,0 0.1733,0 0.2104,0.0251 0.2846,-0.0495 0.0743,-0.0746 0.062,-0.062 0.1239,-0.1613 0.0617,-0.0995 0.1486,-0.1861 0.1486,-0.1861l-0.0372 -0.1988 -0.1113 -0.0993 -0.1981 -0.0621 -0.2104 -0.0369z"/>
   <path class="fil3" d="M104.1431 46.0911c0,0 -0.1734,0.0991 -0.2476,0.1116 -0.0745,0.0124 -0.26,0.0746 -0.26,0.0746 0,0 -0.0993,0.0122 -0.1364,0.1116 -0.0369,0.0993 -0.0864,0.1118 -0.0369,0.2234 0.0496,0.1115 0.0369,0.2112 0.1856,0.2235 0.1487,0.0122 0.1488,0.0495 0.2601,0.0495 0.1114,0 0.0618,0 0.2352,0 0.1735,0 0.2104,0.0251 0.2847,-0.0495 0.0744,-0.0746 0.0621,-0.0619 0.124,-0.1614 0.0617,-0.0994 0.1486,-0.1861 0.1486,-0.1861l-0.0372 -0.1987 -0.1113 -0.0994 -0.1983 -0.062 -0.2104 -0.037z"/>
   <path class="fil3" d="M101.3736 56.6651c0,0 -0.1187,0.0678 -0.1693,0.0763 -0.0509,0.0086 -0.1777,0.0512 -0.1777,0.0512 0,0 -0.0681,0.0082 -0.0934,0.0761 -0.0253,0.068 -0.059,0.0765 -0.0253,0.1528 0.034,0.0763 0.0253,0.1445 0.127,0.1528 0.1016,0.0083 0.1019,0.0339 0.1779,0.0339 0.0761,0 0.0421,0 0.1608,0 0.1184,0 0.1436,0.0171 0.1946,-0.0339 0.0509,-0.051 0.0424,-0.0424 0.0846,-0.1104 0.0422,-0.0678 0.1015,-0.1272 0.1015,-0.1272l-0.0254 -0.1359 -0.0761 -0.0679 -0.1356 -0.0423 -0.1436 -0.0255z"/>
   <path class="fil3" d="M101.853 55.4849c0,0 -0.1187,0.0679 -0.1694,0.0763 -0.0508,0.0087 -0.1776,0.0511 -0.1776,0.0511 0,0 -0.068,0.0083 -0.0934,0.0763 -0.0253,0.068 -0.059,0.0765 -0.0253,0.1526 0.034,0.0765 0.0253,0.1446 0.127,0.1529 0.1015,0.0083 0.1019,0.0338 0.1778,0.0338 0.0761,0 0.0422,0 0.1609,0 0.1183,0 0.1436,0.0171 0.1946,-0.0338 0.0509,-0.051 0.0424,-0.0423 0.0846,-0.1104 0.0422,-0.0678 0.1015,-0.1271 0.1015,-0.1271l-0.0254 -0.136 -0.0761 -0.0678 -0.1356 -0.0424 -0.1436 -0.0255z"/>
   <path class="fil3" d="M102.289 53.955c0,0 -0.1187,0.0676 -0.1694,0.0761 -0.0508,0.0087 -0.1776,0.0512 -0.1776,0.0512 0,0 -0.068,0.0081 -0.0933,0.0761 -0.0254,0.0681 -0.0591,0.0765 -0.0254,0.1528 0.0341,0.0765 0.0254,0.1445 0.1272,0.1529 0.1015,0.0082 0.1016,0.0338 0.1776,0.0338 0.0763,0 0.0422,0 0.1609,0 0.1183,0 0.1437,0.0171 0.1946,-0.0338 0.0508,-0.0512 0.0424,-0.0425 0.0845,-0.1105 0.0422,-0.0678 0.1016,-0.1271 0.1016,-0.1271l-0.0253 -0.1361 -0.0763 -0.0678 -0.1354 -0.0424 -0.1437 -0.0252z"/>
   <path class="fil3" d="M102.6814 52.556c0,0 -0.1186,0.0678 -0.1692,0.0763 -0.0508,0.0086 -0.1778,0.0512 -0.1778,0.0512 0,0 -0.068,0.0081 -0.0932,0.0761 -0.0254,0.068 -0.0592,0.0765 -0.0254,0.1528 0.034,0.0763 0.0254,0.1445 0.1271,0.1528 0.1016,0.0083 0.1017,0.0337 0.1777,0.0337 0.0762,0 0.0422,0 0.1608,0 0.1185,0 0.1437,0.0173 0.1946,-0.0337 0.0509,-0.0511 0.0426,-0.0424 0.0846,-0.1104 0.0422,-0.0679 0.1016,-0.1272 0.1016,-0.1272l-0.0253 -0.136 -0.0763 -0.0678 -0.1355 -0.0424 -0.1437 -0.0254z"/>
   <path class="fil3" d="M103.1839 50.7685c0,0 -0.1733,0.0992 -0.2478,0.1116 -0.0743,0.0127 -0.2598,0.0746 -0.2598,0.0746 0,0 -0.0993,0.0122 -0.1364,0.1115 -0.0369,0.0995 -0.0864,0.1119 -0.0369,0.2236 0.0494,0.1116 0.0369,0.2112 0.1856,0.2235 0.1487,0.0122 0.1488,0.0496 0.2602,0.0496 0.1113,0 0.0618,0 0.2351,0 0.1734,0 0.2105,0.025 0.2847,-0.0496 0.0744,-0.0746 0.0621,-0.0621 0.1239,-0.1614 0.0618,-0.0993 0.1487,-0.1861 0.1487,-0.1861l-0.0374 -0.1988 -0.1112 -0.0993 -0.1981 -0.062 -0.2105 -0.0371z"/>
   <path class="fil3" d="M103.5327 49.0638c0,0 -0.1734,0.0991 -0.2479,0.1115 -0.0742,0.0126 -0.2599,0.0746 -0.2599,0.0746 0,0 -0.0993,0.0122 -0.1362,0.1115 -0.0371,0.0995 -0.0866,0.1118 -0.0371,0.2236 0.0496,0.1116 0.0371,0.2112 0.1856,0.2235 0.1487,0.0122 0.149,0.0494 0.2603,0.0494 0.1112,0 0.0618,0 0.2352,0 0.1733,0 0.2104,0.0251 0.2846,-0.0494 0.0743,-0.0746 0.062,-0.0621 0.1238,-0.1614 0.0618,-0.0993 0.1487,-0.1861 0.1487,-0.1861l-0.0373 -0.1988 -0.1113 -0.0993 -0.198 -0.0621 -0.2104 -0.0369z"/>
   <path class="fil3" d="M104.1431 47.665c0,0 -0.1734,0.0989 -0.2476,0.1115 -0.0745,0.0124 -0.26,0.0746 -0.26,0.0746 0,0 -0.0993,0.0122 -0.1364,0.1115 -0.0369,0.0993 -0.0864,0.1119 -0.0369,0.2235 0.0496,0.1116 0.0369,0.2112 0.1856,0.2235 0.1487,0.0122 0.1488,0.0495 0.2601,0.0495 0.1114,0 0.0618,0 0.2352,0 0.1735,0 0.2104,0.025 0.2847,-0.0495 0.0744,-0.0745 0.0621,-0.062 0.124,-0.1613 0.0617,-0.0995 0.1486,-0.1863 0.1486,-0.1863l-0.0372 -0.1986 -0.1113 -0.0995 -0.1983 -0.062 -0.2104 -0.0368z"/>
   <path class="fil3" d="M99.2737 65.7321l-0.5422 0.2033 -0.1354 0.6101 0.2032 0.61c0,0 0.2033,0.8133 0.2712,1.1522 0.0678,0.3389 0.0678,0.4066 0.2032,0.7455 0.1357,0.3389 0.0679,0.0677 0.3391,0.7455 0.2711,0.6776 0.3388,0.7455 0.4744,1.1521 0.1354,0.4068 0.2712,0.4068 0.4066,0.7455 0.1356,0.339 0.5422,0.7455 0.5422,0.7455l0.4067 0.5422c0,0 0.0678,0.1357 0.61,0.4745 0.5423,0.339 0.4067,0.2711 0.8135,0.4744 0.4065,0.2034 0.6098,0.4745 0.6098,0.4745l0.339 0.2711 0.4744 0.1357c0,0 -0.4744,-0.3391 -0.6776,-0.6778 -0.2033,-0.3389 -0.1357,-0.2711 -0.4068,-0.7455 -0.2712,-0.4744 -0.2033,-0.4068 -0.4745,-0.8134 -0.2711,-0.4068 -0.4744,-0.4744 -0.7455,-0.9489 -0.2711,-0.4744 -0.4066,-0.4744 -0.5422,-0.949 -0.1355,-0.4744 -0.2033,-0.4744 -0.4067,-0.881 -0.2032,-0.4067 -0.2032,-0.4745 -0.4066,-0.8811 -0.2034,-0.4068 -0.339,-0.4068 -0.4068,-0.8134 -0.0676,-0.4068 -0.0676,-0.2033 -0.1354,-0.5422 -0.0679,-0.3391 -0.2033,-0.7455 -0.2033,-0.7455l-0.2711 -0.5423 -0.3391 -0.5423z"/>
   <path class="fil3" d="M78.0594 61.3945l-0.4744 0.4067 -0.339 0.3389 -0.2033 0.4745 -0.0678 0.4744 -0.2033 0.4745c0,0 -0.1354,0.1354 -0.2711,0.4744 -0.1355,0.3389 -0.2033,0.5422 -0.2033,0.5422l-0.5422 0.6777 -0.2033 0.4068 0.339 0.4744 0.5422 -0.1356 0.3388 -0.4066 0.4068 -0.5422 0.0677 -0.4745 0.2711 -0.4744 0.3391 -0.4745 0.3389 -0.5422 0.1355 -0.6101 -0.1355 -0.6099 -0.1356 -0.4744z"/>
   <polygon class="fil3" points="94.5973,60.9199 94.055,60.8523 93.6484,61.3945 93.8517,61.8012 94.3261,61.9366 94.8683,62.14 95.1395,61.8012 95.1395,61.3945 "/>
   <path class="fil3" d="M91.9539 57.3956l-0.8811 -0.0678c0,0 -0.339,-0.2033 -0.8811,-0.2711 -0.5422,-0.0679 -1.0167,-0.2033 -1.3556,-0.2033 -0.339,0 -0.4744,0 -0.8811,0.0676 -0.4068,0.0678 -0.61,0.2034 -0.949,0.2034 -0.3389,0 -0.6099,0.2033 -0.6099,0.2033l-0.5422 0.0678 0 -0.3389 0.61 -0.4745 0.9489 -0.2711 1.1521 -0.1357c0,0 0.4744,-0.2033 0.8812,-0.2033 0.4067,0 0.6099,0.1357 0.9489,0.2033 0.3388,0.0678 0.6777,0.2034 0.6777,0.2034l0.4066 0.2033 0.4745 0.8134z"/>
   <polygon class="fil3" points="96.5627,43.7721 95.8172,43.84 95.4783,44.3823 94.8683,45.1955 94.4617,45.8733 93.8517,46.6866 93.3772,47.6356 93.0383,48.4488 92.5639,49.3978 92.2927,50.0756 91.7505,50.7533 91.276,51.4988 91.4118,51.9732 92.0216,51.5667 92.9705,50.6855 93.7161,49.4654 94.7327,48.3133 95.614,46.89 96.2916,45.3311 96.4949,44.5177 "/>
   <path class="fil3" d="M102.1205 28.9966l0.6099 0.0678c0,0.339 -0.3388,0.4744 -0.3388,0.4744l-0.339 -0.1354c0,0 0,-0.4068 0.0678,-0.4068z"/>
   <polygon class="fil3" points="101.9172,27.4378 101.2393,27.4378 101.3749,27.9122 101.9172,27.9122 102.256,27.7766 "/>
   <polygon class="fil3" points="93.5806,31.5044 93.1739,31.3011 92.6317,31.3011 91.7505,31.5722 91.6151,32.0466 92.1573,32.5889 92.7671,32.9955 93.5128,33.3345 94.1228,33.4023 94.3261,32.9955 94.2583,32.3856 93.9872,31.9111 "/>
   <path class="fil3" d="M102.8661 32.7244l-0.4745 -0.2711 -0.339 0.2034 -0.2032 0.4744 -0.2712 0.6777c0,0 -0.5423,0.339 -0.1356,0.4066 0.4068,0.0678 0.6778,0.0678 0.6778,0.0678l0.4745 -0.1354c0,0 0.0678,-0.2034 0.5422,-0.2712 0.4745,-0.0678 0.4066,-0.0678 0.7455,-0.1356 0.3388,-0.0678 0.5421,-0.4745 0.5421,-0.4745l-0.6099 0 -0.4744 0.0679 -0.339 -0.0679 -0.1354 -0.5422z"/>
   <path class="fil3" d="M98.7993 38.4177l-0.5422 0.2034 -0.4066 0.2712 -0.4745 0.4744 -0.339 0.2033 -0.6775 0.1355 -0.4745 0.1356c0,0 -0.0678,0.4066 0.4745,0.4066 0.5421,0 1.3554,-0.0678 1.3554,-0.0678l0.4744 -0.5421 0.61 -0.1356 0.2712 -0.8134 -0.2712 -0.2712z"/>
   <path class="fil3" d="M97.3082 36.9266l-0.4744 0.2712 -0.2712 0.4068 -0.2711 0.3388 -0.3389 0.2711c0,0 -0.4745,0.2712 -0.1355,0.339 0.339,0.0678 0.881,0 0.881,0l0.7455 -0.61c0.2034,-0.4745 0.2034,-0.6099 0.2034,-0.6099l-0.339 -0.4068z"/>
   <polygon class="fil3" points="94.6651,36.3845 92.1573,38.0789 93.8517,37.8756 94.4617,36.6556 "/>
   <path class="fil3" d="M85.9894 36.7232l-0.3388 0 0.1354 0.4068 0.339 0.1354c0.1355,-0.4065 -0.1356,-0.5422 -0.1356,-0.5422z"/>
   <path class="fil3" d="M84.2272 34.6222l-0.4066 0.2033 0 0.3388 0.4066 0.2034c0.2034,-0.339 0,-0.7455 0,-0.7455z"/>
   <polygon class="fil3" points="82.3295,34.6222 81.7194,34.7578 81.4484,35.2322 81.3806,35.7067 81.516,36.181 81.9905,35.9777 82.5327,35.7067 82.9395,35.3678 82.9395,35.0288 82.7361,34.69 "/>
   <path class="fil3" d="M89.9206 31.0299l-0.6778 0.2033c0,0 -0.4745,0.2712 -0.881,0.339 -0.4067,0.0678 -0.9489,0.2712 -0.9489,0.2712 0,0 -0.2033,0.1354 -0.6101,0.3388 -0.4066,0.2034 -1.1521,0.1356 -0.7455,0.4068 0.4068,0.2711 0.7455,0.2032 0.7455,0.2032l0.8134 -0.1354c0,0 0.4066,-0.0678 0.7456,-0.2034 0.3389,-0.1355 0.881,-0.2712 0.881,-0.2712l0.4744 -0.2033 0.2034 -0.9489z"/>
   <polygon class="fil3" points="95.0717,29.6745 94.7327,29.8778 94.7327,30.2844 95.2072,30.149 95.6816,29.81 95.6816,29.471 "/>
  </g>
 </g>
</svg>
